<svg id="visual" viewBox="0 0 900 600" width="900" height="600" xmlns="http://www.w3.org/2000/svg" xmlns:xlink="http://www.w3.org/1999/xlink" version="1.1"><g stroke-width="1" stroke-linejoin="bevel"><path d="M458 216L442 388L665 231Z" fill="#eceeee" stroke="#eceeee"></path><path d="M442 388L670 424L665 231Z" fill="#fafdff" stroke="#fafdff"></path><path d="M440 600L668 600L670 424Z" fill="#f4f6f8" stroke="#f4f6f8"></path><path d="M442 388L440 600L670 424Z" fill="#f4f6f8" stroke="#f4f6f8"></path><path d="M665 231L654 0L458 216Z" fill="#e7e7e7" stroke="#e7e7e7"></path><path d="M654 0L454 0L458 216Z" fill="#f0f2f3" stroke="#f0f2f3"></path><path d="M458 216L213 216L442 388Z" fill="#fafdff" stroke="#fafdff"></path><path d="M900 414L665 231L670 424Z" fill="#e7e7e7" stroke="#e7e7e7"></path><path d="M900 414L900 235L665 231Z" fill="#f6f9fa" stroke="#f6f9fa"></path><path d="M665 231L900 0L654 0Z" fill="#f6f9fa" stroke="#f6f9fa"></path><path d="M224 0L213 216L458 216Z" fill="#f2f4f5" stroke="#f2f4f5"></path><path d="M442 388L191 428L440 600Z" fill="#e9e9e9" stroke="#e9e9e9"></path><path d="M900 600L900 414L670 424Z" fill="#fafdff" stroke="#fafdff"></path><path d="M213 216L191 428L442 388Z" fill="#f6f9fa" stroke="#f6f9fa"></path><path d="M668 600L900 600L670 424Z" fill="#f0f2f3" stroke="#f0f2f3"></path><path d="M191 428L205 600L440 600Z" fill="#e9e9e9" stroke="#e9e9e9"></path><path d="M454 0L224 0L458 216Z" fill="#f4f6f8" stroke="#f4f6f8"></path><path d="M213 216L0 391L191 428Z" fill="#f0f2f3" stroke="#f0f2f3"></path><path d="M900 235L900 0L665 231Z" fill="#f0f2f3" stroke="#f0f2f3"></path><path d="M0 223L0 391L213 216Z" fill="#f8fbfd" stroke="#f8fbfd"></path><path d="M191 428L0 600L205 600Z" fill="#f4f6f8" stroke="#f4f6f8"></path><path d="M0 0L0 223L213 216Z" fill="#f2f4f5" stroke="#f2f4f5"></path><path d="M0 391L0 600L191 428Z" fill="#fafdff" stroke="#fafdff"></path><path d="M224 0L0 0L213 216Z" fill="#e9e9e9" stroke="#e9e9e9"></path></g></svg>